<?xml version="1.0" encoding="UTF-8" standalone="no"?>
<!DOCTYPE svg PUBLIC "-//W3C//DTD SVG 1.1//EN" "http://www.w3.org/Graphics/SVG/1.1/DTD/svg11.dtd">
<svg width="100%" height="100%" viewBox="0 0 174 41" version="1.1" xmlns="http://www.w3.org/2000/svg" xmlns:xlink="http://www.w3.org/1999/xlink" xml:space="preserve" xmlns:serif="http://www.serif.com/" style="fill-rule:evenodd;clip-rule:evenodd;stroke-linejoin:round;stroke-miterlimit:2;">
    <rect id="Монтажная-область1" serif:id="Монтажная область1" x="0" y="0" width="174" height="40.434" style="fill:none;"/>
    <clipPath id="_clip1">
        <rect id="Монтажная-область11" serif:id="Монтажная область1" x="0" y="0" width="174" height="40.434"/>
    </clipPath>
    <g clip-path="url(#_clip1)">
        <g transform="matrix(0.215646,0,0,2.09453,-120.021,-79.5931)">
            <g transform="matrix(241.251,0,0,24.8384,667.151,51.5374)">
                <path d="M0.498,-0.545C0.515,-0.545 0.53,-0.539 0.541,-0.528C0.552,-0.517 0.558,-0.502 0.558,-0.484L0.558,-0.061C0.558,-0.044 0.552,-0.029 0.541,-0.018C0.53,-0.006 0.515,-0 0.498,-0C0.481,-0 0.466,-0.006 0.455,-0.018C0.444,-0.029 0.438,-0.044 0.438,-0.061L0.438,-0.11L0.46,-0.101C0.46,-0.092 0.455,-0.082 0.446,-0.07C0.437,-0.057 0.424,-0.045 0.408,-0.033C0.392,-0.021 0.373,-0.011 0.352,-0.003C0.33,0.006 0.306,0.01 0.281,0.01C0.235,0.01 0.193,-0.002 0.156,-0.026C0.119,-0.049 0.089,-0.082 0.068,-0.124C0.046,-0.165 0.035,-0.213 0.035,-0.267C0.035,-0.322 0.046,-0.37 0.068,-0.412C0.089,-0.453 0.118,-0.486 0.155,-0.51C0.192,-0.533 0.232,-0.545 0.277,-0.545C0.306,-0.545 0.332,-0.541 0.356,-0.532C0.38,-0.523 0.401,-0.512 0.419,-0.499C0.436,-0.486 0.45,-0.472 0.46,-0.459C0.469,-0.445 0.474,-0.433 0.474,-0.424L0.438,-0.411L0.438,-0.484C0.438,-0.501 0.444,-0.516 0.455,-0.528C0.466,-0.539 0.481,-0.545 0.498,-0.545ZM0.296,-0.1C0.325,-0.1 0.351,-0.107 0.373,-0.122C0.395,-0.137 0.412,-0.157 0.425,-0.182C0.437,-0.207 0.443,-0.236 0.443,-0.267C0.443,-0.299 0.437,-0.328 0.425,-0.353C0.412,-0.378 0.395,-0.398 0.373,-0.413C0.351,-0.428 0.325,-0.435 0.296,-0.435C0.267,-0.435 0.242,-0.428 0.22,-0.413C0.198,-0.398 0.181,-0.378 0.169,-0.353C0.156,-0.328 0.15,-0.299 0.15,-0.267C0.15,-0.236 0.156,-0.207 0.169,-0.182C0.181,-0.157 0.198,-0.137 0.22,-0.122C0.242,-0.107 0.267,-0.1 0.296,-0.1Z" style="fill:rgb(52,52,52);fill-rule:nonzero;"/>
            </g>
            <g transform="matrix(241.251,0,0,24.8384,550.553,51.5374)">
                <path d="M0.034,-0.083C0.027,-0.092 0.024,-0.104 0.025,-0.119C0.026,-0.134 0.034,-0.146 0.051,-0.157C0.062,-0.164 0.073,-0.167 0.085,-0.166C0.097,-0.165 0.109,-0.158 0.12,-0.147C0.139,-0.128 0.16,-0.113 0.181,-0.102C0.202,-0.091 0.229,-0.086 0.261,-0.086C0.271,-0.087 0.282,-0.088 0.294,-0.091C0.306,-0.093 0.317,-0.098 0.326,-0.107C0.335,-0.115 0.339,-0.128 0.339,-0.145C0.339,-0.16 0.334,-0.171 0.324,-0.18C0.314,-0.189 0.301,-0.196 0.285,-0.202C0.268,-0.208 0.25,-0.214 0.23,-0.219C0.209,-0.225 0.188,-0.232 0.167,-0.239C0.145,-0.246 0.125,-0.256 0.107,-0.268C0.089,-0.279 0.074,-0.295 0.063,-0.314C0.052,-0.333 0.046,-0.358 0.046,-0.387C0.046,-0.42 0.055,-0.449 0.074,-0.472C0.093,-0.495 0.117,-0.513 0.147,-0.526C0.176,-0.539 0.207,-0.545 0.24,-0.545C0.261,-0.545 0.282,-0.543 0.305,-0.538C0.328,-0.533 0.349,-0.525 0.37,-0.514C0.391,-0.502 0.408,-0.488 0.422,-0.47C0.429,-0.46 0.434,-0.448 0.435,-0.434C0.436,-0.42 0.43,-0.407 0.416,-0.396C0.406,-0.388 0.394,-0.385 0.381,-0.386C0.368,-0.387 0.357,-0.391 0.348,-0.399C0.337,-0.414 0.322,-0.425 0.303,-0.434C0.284,-0.443 0.262,-0.447 0.237,-0.447C0.227,-0.447 0.216,-0.446 0.205,-0.444C0.193,-0.441 0.183,-0.436 0.174,-0.429C0.165,-0.421 0.161,-0.409 0.161,-0.392C0.161,-0.377 0.166,-0.365 0.176,-0.356C0.186,-0.347 0.2,-0.339 0.217,-0.334C0.234,-0.328 0.252,-0.322 0.271,-0.317C0.291,-0.312 0.311,-0.305 0.332,-0.298C0.353,-0.291 0.372,-0.281 0.389,-0.269C0.406,-0.257 0.42,-0.242 0.431,-0.223C0.442,-0.204 0.447,-0.179 0.447,-0.15C0.447,-0.116 0.437,-0.087 0.417,-0.063C0.397,-0.039 0.372,-0.021 0.342,-0.009C0.312,0.004 0.281,0.01 0.25,0.01C0.211,0.01 0.171,0.003 0.132,-0.011C0.093,-0.024 0.06,-0.048 0.034,-0.083Z" style="fill:rgb(52,52,52);fill-rule:nonzero;"/>
            </g>
            <g transform="matrix(241.251,0,0,24.8384,813.841,51.5374)">
                <path d="M0.089,-0.535C0.102,-0.535 0.113,-0.532 0.124,-0.526C0.135,-0.519 0.143,-0.51 0.148,-0.497L0.295,-0.161L0.273,-0.151L0.423,-0.496C0.434,-0.523 0.452,-0.535 0.476,-0.534C0.493,-0.534 0.506,-0.529 0.517,-0.519C0.527,-0.508 0.532,-0.495 0.532,-0.48C0.532,-0.475 0.531,-0.47 0.53,-0.465C0.528,-0.46 0.526,-0.455 0.524,-0.45L0.337,-0.038C0.326,-0.014 0.309,-0.001 0.286,-0C0.273,0.002 0.261,-0 0.25,-0.007C0.238,-0.014 0.229,-0.024 0.223,-0.038L0.037,-0.45C0.036,-0.453 0.034,-0.458 0.033,-0.463C0.031,-0.468 0.03,-0.475 0.03,-0.482C0.03,-0.494 0.035,-0.506 0.046,-0.518C0.057,-0.529 0.071,-0.535 0.089,-0.535Z" style="fill:rgb(52,52,52);fill-rule:nonzero;"/>
            </g>
            <g transform="matrix(1.1699,1.7841e-18,-1.73286e-17,-0.105881,-176.78,92.903)">
                <path d="M905.76,457.206L928.4,513.195L883.12,513.195L905.76,457.206Z" style="fill:rgb(242,80,65);">
					<animate attributeName="fill" values="rgb(242,80,65); rgb(0,158,239); rgb(60,204,122); rgb(255,231,83)" dur="10s" calcMode="discrete" repeatCount="indefinite" />
				</path>
            </g>
            <g transform="matrix(241.251,0,0,24.8384,954.258,51.5374)">
                <path d="M0.089,-0.535C0.102,-0.535 0.113,-0.532 0.124,-0.526C0.135,-0.519 0.143,-0.51 0.148,-0.497L0.295,-0.161L0.273,-0.151L0.423,-0.496C0.434,-0.523 0.452,-0.535 0.476,-0.534C0.493,-0.534 0.506,-0.529 0.517,-0.519C0.527,-0.508 0.532,-0.495 0.532,-0.48C0.532,-0.475 0.531,-0.47 0.53,-0.465C0.528,-0.46 0.526,-0.455 0.524,-0.45L0.337,-0.038C0.326,-0.014 0.309,-0.001 0.286,-0C0.273,0.002 0.261,-0 0.25,-0.007C0.238,-0.014 0.229,-0.024 0.223,-0.038L0.037,-0.45C0.036,-0.453 0.034,-0.458 0.033,-0.463C0.031,-0.468 0.03,-0.475 0.03,-0.482C0.03,-0.494 0.035,-0.506 0.046,-0.518C0.057,-0.529 0.071,-0.535 0.089,-0.535Z" style="fill:rgb(52,52,52);fill-rule:nonzero;"/>
            </g>
            <g transform="matrix(1.1699,1.7841e-18,-1.73286e-17,-0.105881,-36.3634,92.903)">
                <path d="M905.76,457.206L928.4,513.195L883.12,513.195L905.76,457.206Z" style="fill:rgb(255,231,83);">
					<animate attributeName="fill" values="rgb(255,231,83); rgb(242,80,65); rgb(0,158,239); rgb(60,204,122)" dur="10s" calcMode="discrete" repeatCount="indefinite" />
				</path>
            </g>
            <g transform="matrix(1.05337,0,0,0.108451,310.755,-4.46662)">
                <path d="M928.356,507.195L885.982,413.335C885.677,412.571 885.333,411.579 884.952,410.357C884.57,409.136 884.379,407.685 884.379,406.006C884.379,403.258 885.601,400.547 888.044,397.875C890.486,395.203 893.769,393.867 897.892,393.867C900.793,393.867 903.465,394.593 905.908,396.043C908.351,397.494 910.183,399.669 911.404,402.571L942.927,474.623L974.387,402.8C976.983,396.692 981.029,393.791 986.526,394.096C990.343,394.096 993.435,395.28 995.801,397.646C998.168,400.013 999.351,402.952 999.351,406.464C999.351,407.533 999.16,408.678 998.779,409.899C998.397,411.121 997.977,412.266 997.519,413.335L973.161,467.001L932.196,560.853C929.601,566.96 925.555,569.861 920.058,569.556C916.241,569.556 913.149,568.373 910.782,566.006C908.416,563.639 907.232,560.7 907.232,557.189C907.232,556.12 907.423,554.975 907.805,553.753C908.187,552.532 908.607,551.386 909.065,550.318L928.356,507.195Z" style="fill:rgb(52,52,52);fill-rule:nonzero;"/>
            </g>
            <g transform="matrix(1.1699,1.7841e-18,-1.73286e-17,-0.105881,244.355,92.903)">
                <path d="M905.76,457.206L928.4,513.195L883.12,513.195L905.76,457.206Z" style="fill:rgb(0,158,239);">
					<animate attributeName="fill" values="rgb(0,158,239); rgb(60,204,122); rgb(255,231,83); rgb(242,80,65)" dur="10s" calcMode="discrete" repeatCount="indefinite" />
				</path>
            </g>
            <g transform="matrix(1.05337,0,0,0.108451,170.337,-4.46662)">
                <path d="M928.356,507.195L885.982,413.335C885.677,412.571 885.333,411.579 884.952,410.357C884.57,409.136 884.379,407.685 884.379,406.006C884.379,403.258 885.601,400.547 888.044,397.875C890.486,395.203 893.769,393.867 897.892,393.867C900.793,393.867 903.465,394.593 905.908,396.043C908.351,397.494 910.183,399.669 911.404,402.571L942.927,474.623L974.387,402.8C976.983,396.692 981.029,393.791 986.526,394.096C990.343,394.096 993.435,395.28 995.801,397.646C998.168,400.013 999.351,402.952 999.351,406.464C999.351,407.533 999.16,408.678 998.779,409.899C998.397,411.121 997.977,412.266 997.519,413.335L973.161,467.001L932.196,560.853C929.601,566.96 925.555,569.861 920.058,569.556C916.241,569.556 913.149,568.373 910.782,566.006C908.416,563.639 907.232,560.7 907.232,557.189C907.232,556.12 907.423,554.975 907.805,553.753C908.187,552.532 908.607,551.386 909.065,550.318L928.356,507.195Z" style="fill:rgb(52,52,52);fill-rule:nonzero;"/>
            </g>
            <g transform="matrix(1.1699,1.7841e-18,-1.73286e-17,-0.105881,103.927,92.903)">
                <path d="M905.76,457.206L928.4,513.195L883.12,513.195L905.76,457.206Z" style="fill:rgb(60,204,122);">
					<animate attributeName="fill" values="rgb(60,204,122); rgb(255,231,83); rgb(242,80,65); rgb(0,158,239)" dur="10s" calcMode="discrete" repeatCount="indefinite" />
				</path>
            </g>
        </g>
    </g>
</svg>
