<?xml version="1.0" encoding="UTF-8" standalone="no"?>
<!DOCTYPE svg PUBLIC "-//W3C//DTD SVG 1.1//EN" "http://www.w3.org/Graphics/SVG/1.1/DTD/svg11.dtd">
<svg width="100%" height="100%" viewBox="0 0 512 512" version="1.1" xmlns="http://www.w3.org/2000/svg" xmlns:xlink="http://www.w3.org/1999/xlink" xml:space="preserve" xmlns:serif="http://www.serif.com/" style="fill-rule:evenodd;clip-rule:evenodd;stroke-linejoin:round;stroke-miterlimit:2;">
    <path d="M472,104L200,104C199.999,104 199.998,104 199.996,104C195.608,104 191.996,107.611 191.996,112C191.996,113.241 192.285,114.466 192.84,115.576L215.056,160L192.84,204.424C191.716,206.674 191.716,209.326 192.84,211.576L215.056,256L192.84,300.424C191.716,302.674 191.716,305.326 192.84,307.576L215.056,352L192.84,396.424C191.716,398.674 191.716,401.326 192.84,403.576L215.056,448L192.84,492.424C192.285,493.534 191.996,494.759 191.996,496C191.996,500.389 195.608,504 199.996,504C199.998,504 199.999,504 200,504L472,504C485.166,504 496,493.166 496,480L496,128C496,114.834 485.166,104 472,104ZM272,176L344,176C348.389,176 352,179.611 352,184C352,188.389 348.389,192 344,192L272,192C267.611,192 264,188.389 264,184C264,179.611 267.611,176 272,176ZM440,432L272,432C267.611,432 264,428.389 264,424C264,419.611 267.611,416 272,416L440,416C444.389,416 448,419.611 448,424C448,428.389 444.389,432 440,432ZM440,384L272,384C267.611,384 264,380.389 264,376C264,371.611 267.611,368 272,368L440,368C444.389,368 448,371.611 448,376C448,380.389 444.389,384 440,384ZM440,336L272,336C267.611,336 264,332.389 264,328C264,323.611 267.611,320 272,320L440,320C444.389,320 448,323.611 448,328C448,332.389 444.389,336 440,336ZM440,288L272,288C267.611,288 264,284.389 264,280C264,275.611 267.611,272 272,272L440,272C444.389,272 448,275.611 448,280C448,284.389 444.389,288 440,288ZM440,240L272,240C267.611,240 264,236.389 264,232C264,227.611 267.611,224 272,224L440,224C444.389,224 448,227.611 448,232C448,236.389 444.389,240 440,240Z" style="fill:rgb(242,80,65);fill-rule:nonzero;"/>
    <g>
        <path d="M40,408L296,408C309.166,408 320,397.166 320,384L320,32C320,18.834 309.166,8 296,8L40,8C26.834,8 16,18.834 16,32L16,384C16,397.166 26.834,408 40,408ZM304,32L304,384C304,388.389 300.389,392 296,392L80,392L80,24L112,24L112,80C112,80 112,80.001 112,80.001C112,84.39 115.611,88.001 120,88.001C121.58,88.001 123.126,87.533 124.44,86.656L144,73.6L163.56,86.64C164.874,87.517 166.42,87.985 168,87.985C172.383,87.985 175.992,84.383 176,80L176,24L296,24C300.389,24 304,27.611 304,32ZM128,24L160,24L160,65.048L148.44,57.344C145.757,55.554 142.243,55.554 139.56,57.344L128,65.048L128,24ZM32,32C32,27.611 35.611,24 40,24L64,24L64,392L40,392C35.611,392 32,388.389 32,384L32,32Z" style="fill:rgb(64,64,64);fill-rule:nonzero;"/>
        <path d="M136,128C122.834,128 112,138.834 112,152L112,216C112,229.166 122.834,240 136,240L160,240L160,264C160,264 160,264.001 160,264.001C160,268.39 163.611,272.001 168,272.001C169.58,272.001 171.126,271.533 172.44,270.656L218.4,240L248,240C261.166,240 272,229.166 272,216L272,152C272,138.834 261.166,128 248,128L136,128ZM256,152L256,216C256,220.389 252.389,224 248,224L216,224C214.42,224.002 212.876,224.47 211.56,225.344L176,249.048L176,232C176,227.611 172.389,224 168,224L136,224C131.611,224 128,220.389 128,216L128,152C128,147.611 131.611,144 136,144L248,144C252.389,144 256,147.611 256,152Z" style="fill:rgb(64,64,64);fill-rule:nonzero;"/>
        <path d="M240,320L144,320C139.611,320 136,323.611 136,328C136,332.389 139.611,336 144,336L240,336C244.389,336 248,332.389 248,328C248,323.611 244.389,320 240,320Z" style="fill:rgb(64,64,64);fill-rule:nonzero;"/>
        <path d="M216,176L168,176C163.611,176 160,179.611 160,184C160,188.389 163.611,192 168,192L216,192C220.389,192 224,188.389 224,184C224,179.611 220.389,176 216,176Z" style="fill:rgb(64,64,64);fill-rule:nonzero;"/>
    </g>
</svg>
