<?xml version="1.0" encoding="UTF-8" standalone="no"?>
<!DOCTYPE svg PUBLIC "-//W3C//DTD SVG 1.1//EN" "http://www.w3.org/Graphics/SVG/1.1/DTD/svg11.dtd">
<svg width="100%" height="100%" viewBox="0 0 512 512" version="1.1" xmlns="http://www.w3.org/2000/svg" xmlns:xlink="http://www.w3.org/1999/xlink" xml:space="preserve" xmlns:serif="http://www.serif.com/" style="fill-rule:evenodd;clip-rule:evenodd;stroke-linejoin:round;stroke-miterlimit:2;">
    <g id="Business_Plan">
        <path d="M256.92,425.6C251.215,425.6 246.52,430.295 246.52,436C246.52,441.705 251.215,446.4 256.92,446.4C262.625,446.4 267.32,441.705 267.32,436C267.32,430.295 262.625,425.6 256.92,425.6Z" style="fill:rgb(199,118,255);fill-rule:nonzero;"/>
        <path d="M447.096,341.64C441.391,341.64 436.696,346.335 436.696,352.04C436.696,357.745 441.391,362.44 447.096,362.44C452.801,362.44 457.496,357.745 457.496,352.04C457.496,346.335 452.801,341.64 447.096,341.64Z" style="fill:rgb(199,118,255);fill-rule:nonzero;"/>
        <path d="M488,163L435.2,163C431.814,153.498 422.783,147.1 412.696,147.056L379.256,147.056C375.527,133.477 363.09,123.995 349.008,123.995C334.926,123.995 322.489,133.477 318.76,147.056L285.32,147.056C275.233,147.1 266.202,153.498 262.816,163L210.016,163C196.85,163 186.016,173.834 186.016,187L186.016,488C186.016,501.166 196.85,512 210.016,512L488,512C501.166,512 512,501.166 512,488L512,187C512,173.834 501.166,163 488,163ZM277.312,171.056C277.312,166.667 280.923,163.056 285.312,163.056L325.6,163.056C329.941,163.057 333.531,159.524 333.6,155.184C333.6,146.745 340.545,139.8 348.984,139.8C357.423,139.8 364.368,146.745 364.368,155.184C364.437,159.524 368.027,163.057 372.368,163.056L412.672,163.056C417.061,163.056 420.672,166.667 420.672,171.056L420.672,178C420.672,182.389 417.061,186 412.672,186L285.312,186C280.923,186 277.312,182.389 277.312,178L277.312,171.056ZM377.808,447.352C379.248,448.843 380.054,450.837 380.054,452.91C380.054,457.298 376.442,460.91 372.054,460.91C369.981,460.91 367.987,460.104 366.496,458.664L355.2,447.344L343.872,458.664C342.381,460.104 340.387,460.91 338.314,460.91C333.926,460.91 330.314,457.298 330.314,452.91C330.314,450.837 331.12,448.843 332.56,447.352L343.864,436L332.536,424.68C331.096,423.189 330.29,421.195 330.29,419.122C330.29,414.734 333.902,411.122 338.29,411.122C340.363,411.122 342.357,411.928 343.848,413.368L355.2,424.72L366.52,413.4C368.011,411.96 370.005,411.154 372.078,411.154C376.466,411.154 380.078,414.766 380.078,419.154C380.078,421.227 379.272,423.221 377.832,424.712L366.488,436L377.808,447.352ZM346.552,334.128C303.595,334.195 267.702,368.243 265.368,411.136C276.074,414.748 283.328,424.851 283.328,436.15C283.328,450.633 271.41,462.55 256.928,462.55C242.445,462.55 230.528,450.633 230.528,436.15C230.528,424.515 238.22,414.188 249.368,410.856C251.868,359.294 294.929,318.207 346.552,318.128C388.247,318.074 423.516,286.027 427.552,244.528L418.752,255.92C417.238,257.877 414.898,259.025 412.424,259.025C408.035,259.025 404.423,255.413 404.423,251.024C404.423,249.252 405.012,247.529 406.096,246.128L429.632,215.728C431.176,213.818 433.504,212.706 435.96,212.706C438.416,212.706 440.744,213.818 442.288,215.728L465.824,246.128C466.908,247.53 467.496,249.252 467.496,251.024C467.496,255.415 463.883,259.028 459.492,259.028C457.016,259.028 454.675,257.879 453.16,255.92L443.616,243.568C440.021,294.251 397.362,334.051 346.552,334.128ZM447.096,378.456C432.613,378.456 420.696,366.539 420.696,352.056C420.696,337.573 432.613,325.656 447.096,325.656C461.579,325.656 473.496,337.573 473.496,352.056C473.496,366.539 461.579,378.456 447.096,378.456Z" style="fill:rgb(199,118,255);fill-rule:nonzero;"/>
        <path d="M202.008,287.24L326.008,287.24C330.397,287.24 334.008,283.629 334.008,279.24L334.008,217.24C334.008,212.851 330.397,209.24 326.008,209.24L272,209.24L272,146.888C272,142.499 268.389,138.888 264,138.888L150.616,138.888L155.696,121.136C155.902,120.418 156.007,119.675 156.007,118.928C156.007,114.54 152.396,110.929 148.008,110.928L86.008,110.928L86.008,78L124,78C137.166,78 148,67.166 148,54L148,24C148,10.834 137.166,0 124,0L32,0C18.834,0 8,10.834 8,24L8,54C8,67.166 18.834,78 32,78L70,78L70,110.928L24,110.928C20.438,110.926 17.284,113.303 16.304,116.728L0.304,172.648C0.099,173.363 -0.004,174.104 -0.004,174.848C-0.004,179.237 3.607,182.848 7.996,182.848C7.997,182.848 7.999,182.848 8,182.848L132,182.848C135.557,182.847 138.706,180.475 139.688,177.056L146.032,154.888L256,154.888L256,209.24L202.008,209.24C197.619,209.24 194.008,212.851 194.008,217.24L194.008,240.24L148,240.24L148,217.24C148,212.851 144.389,209.24 140,209.24L16,209.24C11.611,209.24 8,212.851 8,217.24L8,279.24C8,283.629 11.611,287.24 16,287.24L70,287.24L70,316.04L24,316.04C20.44,316.037 17.287,318.41 16.304,321.832L0.304,377.768C0.093,378.493 -0.014,379.245 -0.014,380C-0.014,384.389 3.598,388 7.986,388C7.991,388 7.995,388 8,388L132,388C135.559,387.998 138.709,385.622 139.688,382.2L146.032,360.04L194.032,360.04L194.032,364C194.032,377.166 204.866,388 218.032,388L310.032,388C323.198,388 334.032,377.166 334.032,364L334.032,334C334.032,320.834 323.198,310 310.032,310L218,310C204.834,310 194,320.834 194,334L194,344.04L150.616,344.04L155.696,326.272C155.901,325.557 156.004,324.816 156.004,324.072C156.004,319.685 152.395,316.074 148.008,316.072L86.008,316.072L86.008,287.272L140,287.272C144.389,287.272 148,283.661 148,279.272L148,256.24L194,256.24L194,279.24C194,283.629 197.611,287.24 202,287.24C202.003,287.24 202.005,287.24 202.008,287.24ZM24,54L24,24C24,19.611 27.611,16 32,16L124,16C128.389,16 132,19.611 132,24L132,54C132,58.389 128.389,62 124,62L32,62C27.611,62 24,58.389 24,54ZM125.976,166.848L18.616,166.848L30.032,126.928L137.392,126.928L125.976,166.848ZM210,334C210,329.611 213.611,326 218,326L310,326C314.389,326 318,329.611 318,334L318,364C318,368.389 314.389,372 310,372L218,372C213.611,372 210,368.389 210,364L210,334ZM126,372L18.616,372L30.032,332.072L137.392,332.072L126,372ZM132,271.24L24,271.24L24,225.24L132,225.24L132,271.24ZM210,225.24L318,225.24L318,271.24L210,271.24L210,225.24Z" style="fill:rgb(64,64,64);fill-rule:nonzero;"/>
    </g>
</svg>
