<?xml version="1.0" encoding="UTF-8" standalone="no"?>
<!DOCTYPE svg PUBLIC "-//W3C//DTD SVG 1.1//EN" "http://www.w3.org/Graphics/SVG/1.1/DTD/svg11.dtd">
<svg width="100%" height="100%" viewBox="0 0 512 512" version="1.1" xmlns="http://www.w3.org/2000/svg" xmlns:xlink="http://www.w3.org/1999/xlink" xml:space="preserve" xmlns:serif="http://www.serif.com/" style="fill-rule:evenodd;clip-rule:evenodd;stroke-linejoin:round;stroke-miterlimit:2;">
    <path d="M441.232,133.416L433.056,200L499.624,200L441.232,133.416Z" style="fill:rgb(255,231,83);fill-rule:nonzero;"/>
    <path d="M424,216C419.613,215.998 416.004,212.387 416.004,208C416.004,207.674 416.024,207.348 416.064,207.024L425.784,128L224,128C210.834,128 200,138.834 200,152L200,480C200,493.166 210.834,504 224,504L480,504C493.166,504 504,493.166 504,480L504,216L424,216ZM248,200L376,200C380.389,200 384,203.611 384,208C384,212.389 380.389,216 376,216L248,216C243.611,216 240,212.389 240,208C240,203.611 243.611,200 248,200ZM456,432L248,432C243.611,432 240,428.389 240,424C240,419.611 243.611,416 248,416L456,416C460.389,416 464,419.611 464,424C464,428.389 460.389,432 456,432ZM456,360L248,360C243.611,360 240,356.389 240,352C240,347.611 243.611,344 248,344L456,344C460.389,344 464,347.611 464,352C464,356.389 460.389,360 456,360ZM456,288L248,288C243.611,288 240,284.389 240,280C240,275.611 243.611,272 248,272L456,272C460.389,272 464,275.611 464,280C464,284.389 460.389,288 456,288Z" style="fill:rgb(255,231,83);fill-rule:nonzero;"/>
    <g>
        <path d="M103.504,144C103.504,139.611 99.893,136 95.504,136L31.504,136C27.115,136 23.504,139.611 23.504,144C23.504,148.389 27.115,152 31.504,152L95.504,152C99.893,152 103.504,148.389 103.504,144Z" style="fill:rgb(64,64,64);fill-rule:nonzero;"/>
        <path d="M50.592,192L82.592,192C86.981,192 90.592,188.389 90.592,184C90.592,179.611 86.981,176 82.592,176L50.592,176C46.203,176 42.592,179.611 42.592,184C42.592,188.389 46.203,192 50.592,192Z" style="fill:rgb(64,64,64);fill-rule:nonzero;"/>
        <path d="M120,104C120,99.611 116.389,96 112,96L16,96C11.611,96 8,99.611 8,104C8,108.389 11.611,112 16,112L112,112C116.389,112 120,108.389 120,104Z" style="fill:rgb(64,64,64);fill-rule:nonzero;"/>
        <path d="M381.144,8L93.384,8C81.333,8.018 71.07,17.111 69.6,29.072L65.392,63.024C65.328,63.432 65.296,63.845 65.296,64.258C65.296,68.646 68.908,72.258 73.296,72.258C77.415,72.258 80.894,69.078 81.264,64.976L85.264,32.728L193.424,135.408L59.136,245.2L61.6,224.976C61.664,224.568 61.696,224.155 61.696,223.742C61.696,219.354 58.084,215.742 53.696,215.742C49.577,215.742 46.098,218.922 45.728,223.024L43.04,245.072C42.921,246.043 42.861,247.021 42.861,248C42.861,261.164 53.692,271.997 66.856,272L354.616,272C366.673,271.977 376.944,262.892 378.44,250.928L404.96,34.928C405.079,33.957 405.139,32.979 405.139,32C405.139,18.836 394.308,8.003 381.144,8ZM223.072,141.488L99.272,24L375.72,24L223.072,141.488ZM217.016,157.8C219.863,160.508 224.305,160.736 227.416,158.336L242.76,146.528L349.768,256L71.2,256L205.016,146.6L205.104,146.496L217.016,157.8ZM362.864,246.512L255.52,136.704L388.96,34L362.864,246.512Z" style="fill:rgb(64,64,64);fill-rule:nonzero;"/>
    </g>
</svg>
