<?xml version="1.0" encoding="UTF-8" standalone="no"?>
<!DOCTYPE svg PUBLIC "-//W3C//DTD SVG 1.1//EN" "http://www.w3.org/Graphics/SVG/1.1/DTD/svg11.dtd">
<svg width="100%" height="100%" viewBox="0 0 512 512" version="1.1" xmlns="http://www.w3.org/2000/svg" xmlns:xlink="http://www.w3.org/1999/xlink" xml:space="preserve" xmlns:serif="http://www.serif.com/" style="fill-rule:evenodd;clip-rule:evenodd;stroke-linejoin:round;stroke-miterlimit:2;">
    <path d="M348.224,181.48L150.688,379.024C193.022,403.371 228.157,438.506 252.504,480.84L450.048,283.304C426.415,240.425 391.103,205.113 348.224,181.48Z" style="fill:rgb(255,146,48);fill-rule:nonzero;"/>
    <path d="M143.632,393.4L127.632,494.744C127.567,495.156 127.535,495.572 127.535,495.989C127.535,500.377 131.146,503.989 135.535,503.989C135.958,503.989 136.382,503.955 136.8,503.888L238.152,487.888C215.42,448.696 182.832,416.119 143.632,393.4Z" style="fill:rgb(255,146,48);fill-rule:nonzero;"/>
    <path d="M474.944,156.584C446.997,128.693 401.067,128.693 373.12,156.584L360,169.72C402.33,194.069 437.462,229.204 461.808,271.536L474.944,258.4C502.826,230.452 502.826,184.532 474.944,156.584Z" style="fill:rgb(255,146,48);fill-rule:nonzero;"/>
    <g>
        <path d="M280,24L264,24L264,16C264,11.611 260.389,8 256,8C251.611,8 248,11.611 248,16L248,24L216,24L216,16C216,11.611 212.389,8 208,8C203.611,8 200,11.611 200,16L200,24L168,24L168,16C168,11.611 164.389,8 160,8C155.611,8 152,11.611 152,16L152,24L120,24L120,16C120,11.611 116.389,8 112,8C107.611,8 104,11.611 104,16L104,24L72,24L72,16C72,11.611 68.389,8 64,8C59.611,8 56,11.611 56,16L56,24L40,24C26.834,24 16,34.834 16,48L16,368C16,381.166 26.834,392 40,392L280,392C293.166,392 304,381.166 304,368L304,48C304,34.834 293.166,24 280,24ZM288,368C288,372.389 284.389,376 280,376L40,376C35.611,376 32,372.389 32,368L32,48C32,43.611 35.611,40 40,40L56,40L56,48C56,52.389 59.611,56 64,56C68.389,56 72,52.389 72,48L72,40L104,40L104,48C104,52.389 107.611,56 112,56C116.389,56 120,52.389 120,48L120,40L152,40L152,48C152,52.389 155.611,56 160,56C164.389,56 168,52.389 168,48L168,40L200,40L200,48C200,52.389 203.611,56 208,56C212.389,56 216,52.389 216,48L216,40L248,40L248,48C248,52.389 251.611,56 256,56C260.389,56 264,52.389 264,48L264,40L280,40C284.389,40 288,43.611 288,48L288,368Z" style="fill:rgb(64,64,64);fill-rule:nonzero;"/>
        <path d="M256,104L64,104C59.611,104 56,107.611 56,112C56,116.389 59.611,120 64,120L256,120C260.389,120 264,116.389 264,112C264,107.611 260.389,104 256,104Z" style="fill:rgb(64,64,64);fill-rule:nonzero;"/>
        <path d="M256,168L64,168C59.611,168 56,171.611 56,176C56,180.389 59.611,184 64,184L256,184C260.389,184 264,180.389 264,176C264,171.611 260.389,168 256,168Z" style="fill:rgb(64,64,64);fill-rule:nonzero;"/>
        <path d="M256,232L64,232C59.611,232 56,235.611 56,240C56,244.389 59.611,248 64,248L256,248C260.389,248 264,244.389 264,240C264,235.611 260.389,232 256,232Z" style="fill:rgb(64,64,64);fill-rule:nonzero;"/>
        <path d="M256,296L64,296C59.611,296 56,299.611 56,304C56,308.389 59.611,312 64,312L256,312C260.389,312 264,308.389 264,304C264,299.611 260.389,296 256,296Z" style="fill:rgb(64,64,64);fill-rule:nonzero;"/>
    </g>
</svg>
