<?xml version="1.0" encoding="UTF-8" standalone="no"?>
<!DOCTYPE svg PUBLIC "-//W3C//DTD SVG 1.1//EN" "http://www.w3.org/Graphics/SVG/1.1/DTD/svg11.dtd">
<svg width="100%" height="100%" viewBox="0 0 512 512" version="1.1" xmlns="http://www.w3.org/2000/svg" xmlns:xlink="http://www.w3.org/1999/xlink" xml:space="preserve" xmlns:serif="http://www.serif.com/" style="fill-rule:evenodd;clip-rule:evenodd;stroke-linejoin:round;stroke-miterlimit:2;">
    <path d="M474.992,196.952L370.992,113.752C362.277,106.715 349.723,106.715 341.008,113.752L237.008,196.952C231.304,201.49 227.982,208.399 228,215.688L228,480C228,493.166 238.834,504 252,504L460,504C473.166,504 484,493.166 484,480L484,215.688C484.018,208.399 480.696,201.49 474.992,196.952ZM356,160C366.972,160 376,169.028 376,180C376,190.972 366.972,200 356,200C345.028,200 336,190.972 336,180C336,169.028 345.028,160 356,160ZM436,440L276,440C271.611,440 268,436.389 268,432C268,427.611 271.611,424 276,424L436,424C440.389,424 444,427.611 444,432C444,436.389 440.389,440 436,440Z" style="fill:rgb(0,158,239);fill-rule:nonzero;"/>
    <path d="M276,8L52,8C38.834,8 28,18.834 28,32L28,366.4C28.001,379.566 38.834,390.399 52,390.399C57.512,390.399 62.859,388.5 67.136,385.024L158.96,310.4C161.887,308.026 166.113,308.026 169.04,310.4L260.864,385C265.141,388.476 270.488,390.375 276,390.375C289.156,390.375 299.986,379.556 300,366.4L300,32C300,18.834 289.166,8 276,8ZM52,24L276,24C280.389,24 284,27.611 284,32L284,72L44,72L44,32C44,27.611 47.611,24 52,24ZM270.96,372.592L179.136,297.992C170.338,290.885 157.662,290.885 148.864,297.992L57.04,372.592C55.615,373.748 53.835,374.379 52,374.379C47.619,374.379 44.011,370.781 44,366.4L44,88L284,88L284,366.4C283.989,370.781 280.381,374.379 276,374.379C274.165,374.379 272.385,373.748 270.96,372.592Z" style="fill:rgb(64,64,64);fill-rule:nonzero;"/>
</svg>
