<?xml version="1.0" encoding="UTF-8" standalone="no"?>
<!DOCTYPE svg PUBLIC "-//W3C//DTD SVG 1.1//EN" "http://www.w3.org/Graphics/SVG/1.1/DTD/svg11.dtd">
<svg width="100%" height="100%" viewBox="0 0 512 512" version="1.1" xmlns="http://www.w3.org/2000/svg" xmlns:xlink="http://www.w3.org/1999/xlink" xml:space="preserve" xmlns:serif="http://www.serif.com/" style="fill-rule:evenodd;clip-rule:evenodd;stroke-linejoin:round;stroke-miterlimit:2;">
    <path d="M160,232L128,232C114.834,232 104,242.834 104,256L104,288C104,301.166 114.834,312 128,312L160,312C173.166,312 184,301.166 184,288L184,256C184,242.834 173.166,232 160,232ZM173.68,269.68L149.68,293.68C148.178,295.194 146.132,296.046 144,296.046C141.868,296.046 139.822,295.194 138.32,293.68L122.32,277.68C120.814,276.174 119.967,274.13 119.967,272C119.967,267.593 123.593,263.967 128,263.967C130.13,263.967 132.174,264.814 133.68,266.32L144,276.72L162.32,258.32C163.826,256.814 165.87,255.967 168,255.967C172.407,255.967 176.033,259.593 176.033,264C176.033,266.13 175.186,268.174 173.68,269.68ZM160,328L128,328C114.834,328 104,338.834 104,352L104,384C104,397.166 114.834,408 128,408L160,408C173.166,408 184,397.166 184,384L184,352C184,338.834 173.166,328 160,328ZM173.68,365.68L149.68,389.68C148.178,391.194 146.132,392.046 144,392.046C141.868,392.046 139.822,391.194 138.32,389.68L122.32,373.68C120.814,372.174 119.967,370.13 119.967,368C119.967,363.593 123.593,359.967 128,359.967C130.13,359.967 132.174,360.814 133.68,362.32L144,372.72L162.32,354.32C163.826,352.814 165.87,351.967 168,351.967C172.407,351.967 176.033,355.593 176.033,360C176.033,362.13 175.186,364.174 173.68,365.68ZM480,424L224,424C210.834,424 200,434.834 200,448L200,480C200,493.166 210.834,504 224,504L480,504C493.166,504 504,493.166 504,480L504,448C504,434.834 493.166,424 480,424ZM464,472L240,472C235.611,472 232,468.389 232,464C232,459.611 235.611,456 240,456L464,456C468.389,456 472,459.611 472,464C472,468.389 468.389,472 464,472ZM160,424L128,424C114.834,424 104,434.834 104,448L104,480C104,493.166 114.834,504 128,504L160,504C173.166,504 184,493.166 184,480L184,448C184,434.834 173.166,424 160,424ZM173.68,461.68L149.68,485.68C148.178,487.194 146.132,488.046 144,488.046C141.868,488.046 139.822,487.194 138.32,485.68L122.32,469.68C120.814,468.174 119.967,466.13 119.967,464C119.967,459.593 123.593,455.967 128,455.967C130.13,455.967 132.174,456.814 133.68,458.32L144,468.72L162.32,450.32C163.826,448.814 165.87,447.967 168,447.967C172.407,447.967 176.033,451.593 176.033,456C176.033,458.13 175.186,460.174 173.68,461.68ZM480,328L224,328C210.834,328 200,338.834 200,352L200,384C200,397.166 210.834,408 224,408L480,408C493.166,408 504,397.166 504,384L504,352C504,338.834 493.166,328 480,328ZM464,376L240,376C235.611,376 232,372.389 232,368C232,363.611 235.611,360 240,360L464,360C468.389,360 472,363.611 472,368C472,372.389 468.389,376 464,376ZM480,232L224,232C210.834,232 200,242.834 200,256L200,288C200,301.166 210.834,312 224,312L480,312C493.166,312 504,301.166 504,288L504,256C504,242.834 493.166,232 480,232ZM464,280L240,280C235.611,280 232,276.389 232,272C232,267.611 235.611,264 240,264L464,264C468.389,264 472,267.611 472,272C472,276.389 468.389,280 464,280Z" style="fill:rgb(60,204,122);fill-rule:nonzero;"/>
    <path d="M400,56L360,56L360,16C359.977,11.627 356.373,8.041 352,8.041C350.436,8.041 348.906,8.5 347.6,9.36L299.6,41.36C297.367,42.83 296.014,45.326 296,48L296,108.72L288.8,115.84C181.2,18 8,94.56 8,240C8,332.162 83.838,408 176,408C321.44,408 398,234.8 300.16,127.2L307.28,120L368,120C370.674,119.986 373.17,118.633 374.64,116.4L406.64,68.4C407.5,67.094 407.959,65.564 407.959,64C407.959,59.627 404.373,56.023 400,56ZM312,52.32L344,30.96L344,60.72L312,92.72L312,52.32ZM176,392C92.615,392 24,323.385 24,240C24,108.48 180.16,39.52 277.52,127.2L243.6,161.12C224.755,144.967 200.737,136.083 175.917,136.083C118.865,136.083 71.917,183.03 71.917,240.083C71.917,297.135 118.865,344.083 175.917,344.083C232.97,344.083 279.917,297.135 279.917,240.083C279.917,215.263 271.033,191.245 254.88,172.4L288.8,138.48C376.56,235.92 307.44,392 176,392ZM176,264C175.953,264 175.906,264 175.859,264C162.693,264 151.859,253.166 151.859,240C151.859,226.834 162.693,216 175.859,216C179.483,216 183.059,216.821 186.32,218.4L170.32,234.4C168.814,235.906 167.967,237.95 167.967,240.08C167.967,244.487 171.593,248.113 176,248.113C178.13,248.113 180.174,247.266 181.68,245.76L197.68,229.76C199.191,232.962 199.974,236.459 199.974,240C199.974,253.156 189.156,263.986 176,264ZM198,206.64C191.464,202.328 183.803,200.028 175.972,200.028C154.029,200.028 135.972,218.085 135.972,240.028C135.972,261.971 154.029,280.028 175.972,280.028C197.915,280.028 215.972,261.971 215.972,240.028C215.972,232.197 213.672,224.536 209.36,218L243.6,184C256.682,199.784 263.846,219.654 263.846,240.154C263.846,288.43 224.121,328.154 175.846,328.154C127.57,328.154 87.846,288.43 87.846,240.154C87.846,191.879 127.57,152.154 175.846,152.154C196.346,152.154 216.216,159.318 232,172.4L198,206.64ZM363.68,104L323.28,104L355.28,72L385.04,72L363.68,104Z" style="fill:rgb(64,64,64);fill-rule:nonzero;"/>
</svg>
